<?xml version="1.0" standalone="no"?>
<!DOCTYPE svg PUBLIC "-//W3C//DTD SVG 20010904//EN"
 "http://www.w3.org/TR/2001/REC-SVG-20010904/DTD/svg10.dtd">
<svg version="1.0" xmlns="http://www.w3.org/2000/svg"
 width="256.000000pt" height="256.000000pt" viewBox="0 0 256.000000 256.000000"
 preserveAspectRatio="xMidYMid meet">

<g transform="translate(0.000000,256.000000) scale(0.100000,-0.100000)"
fill="#fff" stroke="none">
<path d="M2082 2529 c-55 -32 -76 -58 -67 -82 8 -19 -993 -573 -1008 -558 -29
29 -76 10 -413 -177 -186 -104 -349 -195 -362 -203 -26 -17 -52 -67 -52 -103
0 -25 -3 -26 -51 -26 -45 0 -55 -4 -86 -35 -32 -32 -35 -40 -30 -76 7 -52 25
-71 108 -117 59 -32 69 -41 79 -77 7 -22 22 -60 34 -85 13 -25 28 -75 35 -112
18 -93 38 -122 101 -143 87 -29 142 -91 169 -190 6 -22 15 -105 22 -185 9
-113 15 -147 28 -157 9 -7 59 -35 111 -62 167 -85 330 -129 521 -138 146 -7
209 1 209 27 0 10 -32 157 -71 325 -73 318 -76 348 -41 392 9 12 125 81 257
154 132 73 250 141 263 152 28 26 28 57 1 227 -19 121 -19 133 -5 190 29 114
75 160 248 254 155 84 193 157 153 292 -6 19 5 28 84 74 50 28 91 54 91 56 0
3 -7 19 -16 37 -13 25 -14 32 -3 36 24 8 59 50 59 72 0 22 -70 159 -98 192
-17 19 -72 23 -102 7 -15 -8 -22 -4 -39 24 -35 56 -55 58 -129 15z m-422
-1191 c73 -37 120 -128 105 -205 -9 -52 -67 -104 -199 -177 -190 -105 -276
-127 -347 -91 -47 25 -89 91 -89 141 0 47 11 62 30 39 22 -26 112 -49 190 -48
82 1 218 33 268 64 34 20 37 26 23 48 -8 12 -21 12 -85 1 -60 -10 -84 -10
-120 0 -50 14 -110 59 -137 103 -17 30 -17 30 4 47 34 27 143 79 185 89 67 16
125 12 172 -11z"/>
</g>
</svg>
